HIERARCHY
ROOT joint_Root
{
	OFFSET 0.0 0.0 0.0
	CHANNELS 6 Xposition Yposition Zposition Zrotation Xrotation Yrotation 
	JOINT Hips
	{
		OFFSET 4.5925 91.4895 -427.239
		CHANNELS 6 Xposition Yposition Zposition Zrotation Xrotation Yrotation 
		JOINT Spine
		{
			OFFSET 15.7357 0.0 0.0
			CHANNELS 6 Xposition Yposition Zposition Zrotation Xrotation Yrotation 
			JOINT Chest
			{
				OFFSET 8.98455 -0.406207 0.0
				CHANNELS 6 Xposition Yposition Zposition Zrotation Xrotation Yrotation 
				JOINT Neck
				{
					OFFSET 16.3773 0.0 0.0
					CHANNELS 6 Xposition Yposition Zposition Zrotation Xrotation Yrotation 
					JOINT Head
					{
						OFFSET 6.45672 0.0 0.0
						CHANNELS 6 Xposition Yposition Zposition Zrotation Xrotation Yrotation 
						End Site
						{
							OFFSET 0.0 0.0 0.0
						}
					}
				}
				JOINT Shoulder_L
				{
					OFFSET 12.9942 -0.242716 4.98039
					CHANNELS 6 Xposition Yposition Zposition Zrotation Xrotation Yrotation 
					JOINT UpperArm_L
					{
						OFFSET 5.34809 0.0 0.0
						CHANNELS 6 Xposition Yposition Zposition Zrotation Xrotation Yrotation 
						JOINT LowerArm_L
						{
							OFFSET 24.3286 1.87007e-05 0.0
							CHANNELS 6 Xposition Yposition Zposition Zrotation Xrotation Yrotation 
							JOINT Hand_L
							{
								OFFSET 22.2916 0.0 0.0
								CHANNELS 6 Xposition Yposition Zposition Zrotation Xrotation Yrotation 
								End Site
								{
									OFFSET 0.0 0.0 0.0
								}
							}
						}
					}
				}
				JOINT Shoulder_R
				{
					OFFSET 12.9945 -0.242716 -4.98039
					CHANNELS 6 Xposition Yposition Zposition Zrotation Xrotation Yrotation 
					JOINT UpperArm_R
					{
						OFFSET -5.34813 0.0 0.0
						CHANNELS 6 Xposition Yposition Zposition Zrotation Xrotation Yrotation 
						JOINT LowerArm_R
						{
							OFFSET -24.3289 0.000322201 0.0
							CHANNELS 6 Xposition Yposition Zposition Zrotation Xrotation Yrotation 
							JOINT Hand_R
							{
								OFFSET -22.2915 -0.000108084 0.0
								CHANNELS 6 Xposition Yposition Zposition Zrotation Xrotation Yrotation 
								End Site
								{
									OFFSET 0.0 0.0 0.0
								}
							}
						}
					}
				}
			}
		}
		JOINT UpperLeg_L
		{
			OFFSET -2.19248 -6.46944 0.0
			CHANNELS 6 Xposition Yposition Zposition Zrotation Xrotation Yrotation 
			JOINT LowerLeg_L
			{
				OFFSET 39.0811 0.0 -1.23785e-05
				CHANNELS 6 Xposition Yposition Zposition Zrotation Xrotation Yrotation 
				JOINT Foot_L
				{
					OFFSET 40.9854 0.0 -1.26872e-05
					CHANNELS 6 Xposition Yposition Zposition Zrotation Xrotation Yrotation 
					JOINT Toes_L
					{
						OFFSET 11.7543 0.0 0.0
						CHANNELS 6 Xposition Yposition Zposition Zrotation Xrotation Yrotation 
						End Site
						{
							OFFSET 0.0 0.0 0.0
						}
					}
				}
			}
		}
		JOINT UpperLeg_R
		{
			OFFSET -2.19251 6.46944 0.0
			CHANNELS 6 Xposition Yposition Zposition Zrotation Xrotation Yrotation 
			JOINT LowerLeg_R
			{
				OFFSET -39.0811 -0.00228153 -0.0401928
				CHANNELS 6 Xposition Yposition Zposition Zrotation Xrotation Yrotation 
				JOINT Foot_R
				{
					OFFSET -40.9854 0.0 0.0
					CHANNELS 6 Xposition Yposition Zposition Zrotation Xrotation Yrotation 
					JOINT Toes_R
					{
						OFFSET -11.7543 0.0 0.0
						CHANNELS 6 Xposition Yposition Zposition Zrotation Xrotation Yrotation 
						End Site
						{
							OFFSET 0.0 0.0 0.0
						}
					}
				}
			}
		}
	}
}
MOTION
Frames:	4
Frame Time:	0.0333333
0.000000 0.000000 0.000000 0.000000 0.000000 -0.000000 7.617540 84.048000 -81.243300 90.266100 -1.604190 -4.367950 15.735700 0.000005 -0.000001 95.257600 83.060200 -93.846400 8.984550 -0.406207 -0.000000 6.042430 1.247200 2.753360 16.377300 -0.000001 -0.000001 -3.471660 -4.559960 3.102550 6.456720 -0.000001 -0.000000 -9.294680 -4.410210 5.155980 12.994200 -0.242716 4.980390 -90.863800 2.610740 -71.680100 5.348090 -0.000007 -0.000001 -65.145300 41.108500 -1.957940 24.328600 0.000019 0.000005 13.742600 1.683720 -83.141600 22.291600 -0.000001 0.000005 10.872100 5.525480 -7.594830 12.994500 -0.242716 -4.980390 88.119000 8.544860 -77.536600 -5.348130 -0.000001 -0.000004 -50.761400 39.638000 -20.970100 -24.328900 0.000322 -0.000009 -5.018470 1.204290 -103.454000 -22.291500 -0.000108 -0.000004 18.611900 5.628960 -13.258300 -2.192480 -6.469440 -0.000000 176.428000 -4.004220 -40.859600 39.081100 -0.000007 -0.000012 -0.528328 -0.257425 115.978000 40.985400 -0.000006 -0.000013 11.320400 -6.571190 -48.867200 11.754300 -0.000000 0.000003 -0.006356 -0.074049 -19.590700 -2.192510 6.469440 -0.000001 -176.468000 8.342150 166.765000 -39.081100 -0.002282 -0.040193 0.149923 -0.119737 50.774600 -40.985400 0.000008 0.000006 13.205700 -0.081114 -86.477800 -11.754300 -0.000006 -0.000006 -1.306990 -1.499000 -20.919600
0.000000 0.000000 0.000000 0.000000 0.000000 -0.000000 8.194110 87.253300 -72.285700 92.581400 -2.727000 -5.251810 15.735700 0.000005 -0.000001 108.323000 83.483200 -108.211000 8.984550 -0.406207 -0.000000 4.612220 4.086900 0.058900 16.377300 -0.000001 -0.000001 -2.787350 -4.185770 3.160460 6.456720 -0.000001 -0.000000 -8.350980 -5.815610 5.926500 12.994200 -0.242716 4.980390 -90.325800 0.877991 -69.614200 5.348090 -0.000007 -0.000001 -60.758300 45.168300 2.033970 24.328600 0.000019 0.000005 15.257200 -0.212697 -90.781300 22.291600 -0.000001 0.000005 7.668890 5.524820 -7.561210 12.994500 -0.242716 -4.980390 88.463300 7.314960 -78.102500 -5.348130 -0.000001 -0.000004 -52.778200 40.496300 -20.212900 -24.328900 0.000322 -0.000009 -5.404100 1.675370 -107.173000 -22.291500 -0.000108 -0.000004 18.228400 5.623990 -12.893100 -2.192480 -6.469440 -0.000000 173.247000 -2.756020 -43.312000 39.081100 -0.000007 -0.000012 -0.333980 -0.079346 103.366000 40.985400 -0.000006 -0.000013 9.679460 -7.965030 -54.540800 11.754300 -0.000000 0.000003 -0.005370 -0.065008 -19.222100 -2.192510 6.469440 -0.000001 179.005000 9.007840 174.802000 -39.081100 -0.002282 -0.040193 0.119075 -0.126752 42.415700 -40.985400 0.000008 0.000006 13.224100 4.230690 -75.622100 -11.754300 -0.000006 -0.000006 -0.068561 -0.358643 -31.417700
0.000000 0.000000 0.000000 0.000000 0.000000 -0.000000 8.742590 90.785700 -63.526600 93.535700 -4.435980 -6.709190 15.735700 0.000005 -0.000001 121.211000 83.652400 -122.066000 8.984550 -0.406207 -0.000000 3.159930 6.605880 -1.892820 16.377300 -0.000001 -0.000001 -2.677330 -3.778570 2.888900 6.456720 -0.000001 -0.000000 -8.149910 -6.712900 5.189410 12.994200 -0.242716 4.980390 -89.618500 -0.928860 -67.689600 5.348090 -0.000007 -0.000001 -57.706500 46.411400 6.271830 24.328600 0.000019 0.000005 14.277900 -1.742070 -96.812900 22.291600 -0.000001 0.000005 5.534530 5.503800 -6.684260 12.994500 -0.242716 -4.980390 88.820900 5.953910 -78.777800 -5.348130 -0.000001 -0.000004 -55.670400 42.040000 -19.001200 -24.328900 0.000322 -0.000009 -4.597820 1.532750 -108.398000 -22.291500 -0.000108 -0.000004 15.900100 5.601510 -11.399200 -2.192480 -6.469440 -0.000000 171.889000 -2.870830 -43.404100 39.081100 -0.000007 -0.000012 -0.145255 0.011585 85.443200 40.985400 -0.000006 -0.000013 8.353800 -10.380700 -58.495700 11.754300 -0.000000 0.000003 -0.005070 -0.062150 -19.105600 -2.192510 6.469440 -0.000001 174.799000 12.728300 179.259000 -39.081100 -0.002282 -0.040193 0.089706 -0.118860 36.019200 -40.985400 0.000008 0.000006 12.093100 12.938900 -58.249800 -11.754300 -0.000006 -0.000006 -0.191574 -0.630922 -43.553500
0.000000 0.000000 0.000000 0.000000 0.000000 -0.000000 8.935110 93.528400 -54.764300 92.148500 -5.427760 -6.394830 15.735700 0.000005 -0.000001 127.207000 83.237400 -128.129000 8.984550 -0.406207 -0.000000 3.100940 8.207870 -2.066530 16.377300 -0.000001 -0.000001 -2.776390 -3.466370 2.262870 6.456720 -0.000001 -0.000000 -8.850460 -7.243400 3.594910 12.994200 -0.242716 4.980390 -88.773500 -2.791650 -66.274800 5.348090 -0.000007 -0.000001 -56.544700 44.942000 11.192300 24.328600 0.000019 0.000005 12.964000 -2.786100 -101.926000 22.291600 -0.000001 0.000005 5.311720 5.482490 -5.844690 12.994500 -0.242716 -4.980390 89.145300 4.600450 -79.464300 -5.348130 -0.000001 -0.000004 -57.757300 43.735200 -18.691400 -24.328900 0.000322 -0.000009 -3.756340 1.239820 -108.238000 -22.291500 -0.000108 -0.000004 13.908300 5.566680 -9.516600 -2.192480 -6.469440 -0.000000 173.538000 -4.026490 -38.896400 39.081100 -0.000007 -0.000012 -0.015699 0.007666 63.989300 40.985400 -0.000006 -0.000013 8.038770 -10.102400 -62.339600 11.754300 -0.000000 0.000003 -0.005807 -0.069079 -19.388100 -2.192510 6.469440 -0.000001 172.303000 16.028800 -176.340000 -39.081100 -0.002282 -0.040193 0.092877 -0.142223 32.204800 -40.985400 0.000008 0.000006 4.122300 19.153200 -41.347800 -11.754300 -0.000006 -0.000006 -0.071300 -0.366866 -31.769100
